<?xml version="1.0" standalone="no"?>
<!DOCTYPE svg PUBLIC "-//W3C//DTD SVG 20010904//EN"
 "http://www.w3.org/TR/2001/REC-SVG-20010904/DTD/svg10.dtd">
<svg version="1.0" xmlns="http://www.w3.org/2000/svg"
 width="1280.000000pt" height="1280.000000pt" viewBox="0 0 1280.000000 1280.000000"
 preserveAspectRatio="xMidYMid meet">
<g transform="translate(0.000000,1280.000000) scale(0.100000,-0.100000)"
fill="#ffffff" stroke="none">
<path d="M0 6400 l0 -6400 6400 0 6400 0 0 6400 0 6400 -6400 0 -6400 0 0
-6400z m5625 5530 c432 -24 888 -106 1258 -226 971 -316 1719 -935 2307 -1909
104 -172 200 -358 192 -371 -4 -6 -151 -83 -327 -172 l-320 -160 -105 15 c-81
11 -157 13 -336 9 -140 -4 -241 -3 -255 3 -13 5 -202 163 -419 350 -217 188
-398 341 -402 341 -5 0 -8 -213 -8 -473 l0 -474 -82 -64 c-109 -83 -314 -283
-395 -384 -417 -517 -541 -1097 -352 -1648 121 -354 379 -697 738 -983 55 -43
100 -85 100 -91 2 -26 -247 -156 -387 -202 -125 -42 -348 -68 -445 -52 -75 12
-200 66 -230 99 -16 18 -16 22 9 77 38 83 43 174 14 243 -25 57 -83 116 -139
139 -20 9 -61 16 -91 16 -90 0 -148 -42 -172 -127 -6 -22 -15 -45 -18 -49 -4
-5 -36 10 -70 32 -93 60 -147 52 -238 -33 -60 -57 -95 -124 -100 -197 -5 -74
9 -116 60 -174 l42 -48 -25 -19 c-86 -67 -120 -103 -144 -153 -32 -64 -29 -93
13 -170 31 -58 96 -106 177 -131 77 -25 136 -9 261 68 54 33 123 72 152 85
l53 25 42 -29 c23 -15 92 -78 152 -139 173 -175 230 -199 470 -199 191 0 251
15 398 102 136 81 168 96 179 85 17 -17 -31 -152 -112 -312 -133 -264 -210
-483 -251 -720 -26 -144 -28 -507 -5 -619 27 -128 111 -294 228 -449 32 -43
37 -56 28 -68 -7 -8 -20 -14 -29 -14 -51 0 -127 -90 -150 -177 -7 -23 -15 -45
-20 -47 -14 -9 -1634 1192 -1650 1222 -12 22 -13 95 -5 452 13 651 10 858 -15
1028 -31 203 -89 427 -193 737 -50 149 -91 277 -92 284 -1 11 20 18 74 28 241
41 396 137 451 283 24 63 26 194 3 271 -49 166 -191 338 -331 401 -24 10 -43
25 -43 32 0 7 30 55 67 107 266 375 449 762 518 1095 66 318 53 597 -41 889
-55 169 -175 386 -303 545 -65 82 -258 277 -333 338 -32 26 -58 54 -58 63 0 9
31 176 70 370 70 356 76 393 63 387 -19 -8 -519 -261 -709 -359 l-211 -108
-99 30 c-230 69 -448 98 -599 79 -49 -6 -132 -14 -183 -17 l-92 -6 -63 39
c-175 108 -397 258 -397 269 0 13 163 131 322 232 651 415 1434 665 2203 703
82 4 164 8 180 8 17 1 116 -3 220 -8z m-3141 -1136 c8 -20 8 -387 0 -408 -3
-8 -46 -47 -96 -86 -275 -218 -483 -449 -640 -713 -125 -208 -210 -437 -248
-662 -19 -114 -22 -154 -17 -325 4 -145 11 -219 26 -288 111 -499 426 -944
959 -1354 34 -27 62 -52 62 -58 0 -5 -188 -70 -417 -145 -230 -75 -486 -159
-569 -186 l-151 -50 -297 75 c-164 40 -300 77 -303 80 -3 3 11 38 32 77 50 96
59 186 23 238 -34 51 -71 73 -126 79 -59 5 -111 -10 -153 -45 -17 -15 -34 -22
-39 -17 -13 15 22 211 91 508 260 1115 718 2070 1338 2791 160 186 482 505
510 505 5 0 12 -7 15 -16z m5168 -1433 c276 -237 354 -300 383 -305 21 -4 132
-4 248 -1 171 6 237 4 339 -10 l128 -16 322 162 c177 89 355 179 396 201 50
26 78 36 85 29 7 -7 -11 -116 -53 -328 l-64 -319 128 -124 c212 -206 340 -379
452 -605 245 -499 254 -1049 26 -1632 -20 -51 -42 -93 -48 -93 -7 0 -50 9 -96
20 -176 41 -408 45 -613 9 -165 -28 -370 -96 -514 -168 -33 -17 -67 -31 -74
-31 -7 0 -28 20 -45 44 -46 64 -132 146 -169 162 -39 17 -104 18 -158 3 -73
-20 -135 -106 -135 -186 0 -24 -2 -25 -65 -28 -74 -3 -115 -16 -151 -47 -46
-41 -59 -68 -74 -155 -21 -129 0 -180 109 -259 62 -45 65 -51 75 -137 11 -93
63 -179 131 -215 18 -9 55 -16 90 -16 86 0 159 36 250 125 l73 70 68 -21 c89
-27 278 -39 459 -30 161 9 202 14 343 41 56 11 107 19 113 17 5 -2 -7 -29 -27
-61 -33 -54 -38 -57 -75 -57 -21 0 -39 -2 -39 -5 0 -3 20 -86 44 -183 126
-503 174 -857 162 -1192 -8 -248 -52 -729 -75 -832 -11 -48 -41 -158 -66 -245
-88 -301 -86 -282 -69 -545 22 -365 28 -385 197 -723 79 -159 123 -234 157
-272 102 -111 106 -191 15 -272 -123 -107 -396 -175 -705 -174 -181 0 -283 16
-354 56 -132 72 29 211 464 399 l34 15 -91 96 c-279 292 -443 587 -443 794 0
34 -5 55 -12 58 -7 2 -193 27 -413 55 -220 27 -412 52 -426 55 -36 6 -128 -50
-202 -123 -199 -195 -172 -475 69 -732 43 -46 77 -96 114 -170 48 -96 52 -109
47 -156 -18 -178 -216 -302 -533 -334 -243 -25 -493 37 -577 142 -38 48 -40
104 -7 172 26 52 -1 36 398 226 72 35 132 67 132 71 0 4 -15 18 -32 30 -66 45
-91 76 -140 173 -57 113 -112 270 -129 369 -14 86 -7 266 15 333 26 82 54 116
126 151 35 17 66 36 68 42 2 5 -10 28 -27 51 -57 79 -103 264 -138 555 -14
122 -17 229 -17 575 l0 425 116 375 c89 286 113 376 102 378 -24 6 -127 -29
-200 -68 -93 -48 -207 -65 -439 -65 -221 0 -307 18 -409 85 -91 59 -272 205
-280 225 -8 21 -19 19 -90 -14 -148 -71 -372 -117 -426 -89 -40 22 -39 86 2
168 32 63 46 76 145 136 16 10 11 14 -37 39 -95 47 -130 92 -130 166 0 112
140 256 212 218 13 -7 63 -41 112 -76 49 -34 93 -63 97 -63 4 0 5 34 2 75 -9
119 27 175 114 175 58 0 102 -19 140 -63 66 -76 68 -163 6 -279 l-38 -70 35
-30 c91 -77 215 -127 335 -134 96 -7 332 25 426 56 118 40 465 219 484 250 3
5 -32 37 -77 72 -122 93 -283 232 -311 270 -38 52 -91 154 -140 268 -191 448
-235 944 -126 1420 55 241 212 604 338 781 99 138 243 273 369 345 17 10 32
26 32 35 0 9 -14 74 -30 144 -86 356 -128 593 -114 630 4 8 11 15 18 15 6 0
167 -134 358 -299z m1949 -408 c49 -108 137 -325 145 -357 4 -19 3 -27 -4 -25
-6 2 -61 53 -123 114 l-112 109 12 76 c15 97 29 150 42 150 5 0 24 -30 40 -67z
m633 -2240 c10 -33 46 -272 81 -536 56 -433 99 -897 129 -1407 l14 -235 174
-175 c492 -494 916 -1116 1126 -1652 128 -325 182 -604 168 -858 -49 -885
-877 -1391 -2476 -1515 -260 -20 -324 -19 -815 10 -1719 102 -2734 210 -3589
380 -1321 263 -2272 703 -3211 1484 -254 212 -409 355 -690 636 l-270 270 -70
160 c-247 571 -354 940 -410 1425 -23 190 -31 693 -16 965 7 121 16 226 21
235 9 17 331 220 349 220 5 0 45 -25 88 -56 102 -74 239 -139 360 -171 77 -20
131 -26 253 -30 197 -7 313 9 611 82 227 56 289 65 289 43 0 -7 -56 -263 -125
-567 -140 -621 -152 -704 -135 -930 16 -208 42 -324 151 -660 38 -119 84 -274
102 -344 l32 -128 220 -217 c236 -234 386 -366 560 -497 147 -110 253 -174
485 -290 107 -54 229 -119 270 -146 54 -34 198 -96 515 -222 242 -96 838 -333
1325 -527 487 -193 911 -360 942 -370 32 -10 75 -33 95 -50 116 -102 366 -156
607 -131 334 35 552 172 582 369 4 23 10 45 15 48 5 3 158 -63 341 -147 248
-113 344 -161 375 -189 185 -171 947 -108 1174 97 111 100 106 225 -14 359
-30 33 -79 118 -151 263 -59 117 -115 234 -126 261 -31 79 -48 186 -60 377
-18 304 -19 294 44 511 96 327 104 371 132 682 43 493 43 751 -2 1055 -19 135
-77 419 -119 590 l-34 140 23 21 c12 11 41 47 63 80 36 52 79 96 203 207 20
18 71 50 115 71 106 52 243 185 268 260 42 124 4 209 -137 311 l-27 20 24 55
c28 64 89 239 112 323 16 58 29 71 39 40z m-1726 -450 c41 -35 78 -82 143
-182 l15 -24 135 66 c150 75 290 123 454 158 96 21 138 24 325 24 226 0 274
-7 402 -55 131 -49 205 -130 196 -215 -11 -94 -125 -216 -264 -282 -162 -77
-407 -96 -875 -69 -152 9 -313 16 -357 16 l-82 0 -19 -37 c-57 -112 -218 -197
-333 -178 -22 4 -49 16 -59 26 -39 39 -16 133 55 229 32 42 32 42 -94 65 -52
10 -105 24 -118 32 -56 35 -78 122 -47 183 25 48 66 63 154 57 42 -3 86 -9 99
-13 23 -7 23 -6 16 53 -14 127 48 198 164 189 33 -3 54 -13 90 -43z m-3813
-3056 c681 -390 1750 -1039 2091 -1268 72 -49 140 -92 151 -96 26 -10 263
-238 263 -253 0 -12 -284 -150 -309 -150 -12 1 -9 7 12 25 15 13 27 28 27 33
0 23 -303 178 -1190 607 -1197 578 -1770 935 -1770 1102 0 47 34 78 101 92
261 53 336 67 349 62 8 -3 132 -72 275 -154z m3593 -836 c271 -34 376 -51 383
-62 5 -8 9 -25 9 -39 0 -14 7 -53 15 -85 51 -199 162 -387 366 -622 83 -95
102 -123 80 -123 -4 0 -337 158 -739 350 -402 193 -740 350 -751 350 -28 0
-27 20 5 81 44 88 175 199 233 199 15 0 194 -22 399 -49z"/>
<path d="M7651 8493 c8 -20 247 -236 287 -260 120 -71 220 -39 330 105 75 99
91 146 45 127 -12 -5 -14 -9 -5 -12 18 -7 15 -20 -19 -71 -59 -88 -141 -162
-180 -162 -8 0 -10 14 -5 46 12 89 -30 167 -68 128 -23 -22 -29 -58 -23 -120
3 -29 2 -56 -2 -58 -20 -13 -106 48 -203 143 -60 57 -108 108 -108 113 0 4 26
8 57 8 31 0 54 2 52 4 -9 8 -161 17 -158 9z"/>
<path d="M7853 8473 c15 -2 39 -2 55 0 15 2 2 4 -28 4 -30 0 -43 -2 -27 -4z"/>
<path d="M9280 8449 c-123 -42 -231 -56 -332 -41 -72 10 -100 10 -87 -2 18
-17 261 -163 298 -179 25 -11 68 -21 94 -21 43 -1 52 3 82 35 24 27 37 54 49
107 22 95 21 132 -1 131 -10 0 -56 -14 -103 -30z m96 -57 c-7 -60 -34 -130
-57 -149 -8 -6 -23 -13 -34 -15 -18 -3 -19 3 -20 67 0 39 -4 82 -8 96 -8 26
-6 28 50 47 32 10 62 17 67 14 5 -2 6 -30 2 -60z m-201 -70 c0 -86 -5 -88 -91
-36 -32 20 -74 45 -91 56 -45 27 -41 38 15 39 26 0 70 4 97 8 28 5 55 7 60 6
6 -1 10 -34 10 -73z"/>
<path d="M7973 8463 c20 -2 54 -2 75 0 20 2 3 4 -38 4 -41 0 -58 -2 -37 -4z"/>
<path d="M8178 8453 c18 -2 45 -2 60 0 15 2 0 4 -33 4 -33 0 -45 -2 -27 -4z"/>
<path d="M8553 8219 c-38 -12 -63 -25 -63 -34 0 -26 51 -75 92 -87 22 -6 42
-18 45 -25 10 -26 -65 -163 -122 -222 -80 -84 -143 -116 -227 -116 -38 0 -68
-3 -68 -7 0 -15 75 -20 119 -9 83 22 78 26 121 -86 51 -135 122 -280 182 -369
71 -106 120 -130 155 -77 16 25 18 51 15 266 -2 132 0 252 3 267 4 19 19 36
42 50 20 11 33 23 31 25 -3 3 -27 1 -54 -4 -41 -8 -54 -6 -80 10 -46 28 -75
103 -77 196 -2 85 -3 83 78 102 67 16 72 23 52 66 -20 43 -82 75 -142 74 -22
0 -68 -9 -102 -20z m95 -270 c10 -82 53 -152 112 -183 21 -11 21 -16 23 -283
2 -240 0 -274 -14 -289 -26 -25 -55 -9 -104 57 -79 108 -225 421 -225 483 0
20 14 41 55 78 30 27 71 77 92 109 37 62 56 70 61 28z"/>
</g>
</svg>
